<svg height='100px' width='100px'  fill="#ff0000" xmlns="http://www.w3.org/2000/svg" xmlns:xlink="http://www.w3.org/1999/xlink" version="1.1" x="0px" y="0px" viewBox="0 0 32 32" style="enable-background:new 0 0 32 32;" xml:space="preserve"><path d="M24.5,16l4.344-4.344C29.391,11.109,30,10.141,30,8.813c0-1.078-0.563-2.25-1.172-2.813L26,3.172  C25.438,2.563,24.266,2,23.188,2c-1.328,0-2.297,0.609-2.844,1.156L16,7.5l-4.344-4.344C11.109,2.609,10.141,2,8.813,2  C7.734,2,6.563,2.563,6,3.172L3.172,6C2.563,6.563,2,7.734,2,8.813c0,1.328,0.609,2.297,1.156,2.844L7.5,16l-4.344,4.344  C2.609,20.891,2,21.859,2,23.188c0,1.078,0.563,2.25,1.172,2.813L6,28.828C6.563,29.438,7.734,30,8.813,30  c1.328,0,2.297-0.609,2.844-1.156L16,24.5l4.344,4.344C20.891,29.391,21.859,30,23.188,30c1.078,0,2.25-0.563,2.813-1.172L28.828,26  C29.438,25.438,30,24.266,30,23.188c0-1.328-0.609-2.297-1.156-2.844L24.5,16z"></path></svg>