<svg height='100px' width='100px'  fill="#a4a4a4" xmlns="http://www.w3.org/2000/svg" xmlns:xlink="http://www.w3.org/1999/xlink" viewBox="0 0 100 100" version="1.1" x="0px" y="0px"><title>Extra Extra Bold Collapse</title><desc>Created with Sketch.</desc><g stroke="none" stroke-width="1" fill="none" fill-rule="evenodd"><g fill="#a4a4a4"><path d="M60.0865723,61.8800941 C61.356706,63.1544696 61.2511415,64.9537109 60.0864477,66.1222944 C58.9217539,67.2908778 57.1285013,67.3967948 55.8583292,66.1223808 L52.9898177,63.2526442 L52.9898177,76.0002746 C52.9898177,77.6572736 51.6513295,79 50.0000768,79 C48.3484595,79 47.010336,77.6574076 47.010336,76.0002746 L47.0255051,63.2503249 L44.1412878,66.1224194 C42.8711541,67.3967948 41.0779015,67.2908778 39.9132077,66.1222944 C38.7485139,64.9537109 38.6429494,63.1544696 39.9156703,61.8775078 L48.0207312,53.8047657 C49.0923552,52.7374148 50.8295352,52.7302165 51.9042383,53.7924742 L60.0865723,61.8800941 Z M39.9134277,38.1199059 C38.643294,36.8455304 38.7488585,35.0462891 39.9135523,33.8777056 C41.0782461,32.7091222 42.8714987,32.6032052 44.1416708,33.8776192 L47.0101823,36.7473558 L47.0101823,23.9997254 C47.0101823,22.3427264 48.3486705,21 49.9999232,21 C51.6515405,21 52.989664,22.3425924 52.989664,23.9997254 L52.9744949,36.7496751 L55.8587122,33.8775806 C57.1288459,32.6032052 58.9220985,32.7091222 60.0867923,33.8777056 C61.2514861,35.0462891 61.3570506,36.8455304 60.0843297,38.1224922 L51.9792688,46.1952343 C50.9076448,47.2625852 49.1704648,47.2697835 48.0957617,46.2075258 L39.9134277,38.1199059 Z"></path></g></g></svg>