<svg height='100px' width='100px'  fill="#a4a4a4" xmlns="http://www.w3.org/2000/svg" viewBox="0 0 30 30" x="0px" y="0px"><title>settings</title><path d="M26.32,12.83l-2.23-.74a9.33,9.33,0,0,0-.6-1.46l1.05-2.1a1,1,0,0,0-.19-1.15L22.62,5.65a1,1,0,0,0-1.15-.19l-2.1,1a9.33,9.33,0,0,0-1.46-.6l-.74-2.23a1,1,0,0,0-1-.68H13.78a1,1,0,0,0-.95.68l-.74,2.23a9.33,9.33,0,0,0-1.46.6l-2.1-1a1,1,0,0,0-1.15.19L5.65,7.38a1,1,0,0,0-.19,1.15l1,2.1a9.33,9.33,0,0,0-.6,1.46l-2.23.74a1,1,0,0,0-.68.95v2.44a1,1,0,0,0,.68,1l2.23.74a9.33,9.33,0,0,0,.6,1.46l-1,2.1a1,1,0,0,0,.19,1.15l1.73,1.73a1,1,0,0,0,1.15.19l2.1-1.05a9.33,9.33,0,0,0,1.46.6l.74,2.23a1,1,0,0,0,.95.68h2.44a1,1,0,0,0,1-.68l.74-2.23a9.33,9.33,0,0,0,1.46-.6l2.1,1.05a1,1,0,0,0,1.15-.19l1.73-1.73a1,1,0,0,0,.19-1.15l-1.05-2.1a9.33,9.33,0,0,0,.6-1.46l2.23-.74a1,1,0,0,0,.68-1V13.78A1,1,0,0,0,26.32,12.83ZM15,20a5,5,0,1,1,5-5A5,5,0,0,1,15,20Z"></path></svg>