<?xml version="1.0" encoding="UTF-8" standalone="no"?><!DOCTYPE svg PUBLIC "-//W3C//DTD SVG 1.1//EN" "http://www.w3.org/Graphics/SVG/1.1/DTD/svg11.dtd"><svg width="100%" height="100%" viewBox="0 0 56 16" version="1.1" xmlns="http://www.w3.org/2000/svg" xmlns:xlink="http://www.w3.org/1999/xlink" xml:space="preserve" xmlns:serif="http://www.serif.com/" style="fill-rule:evenodd;clip-rule:evenodd;stroke-linecap:round;stroke-linejoin:round;stroke-miterlimit:1.5;"><g><path d="M19.795,8.381l0,1.378l-2.12,-2.119l2.12,-2.12l0,1.378l16.266,0l0,-1.378l2.12,2.12l-2.12,2.119l0,-1.378l-16.266,0Z" style="fill-opacity:0.84;"/><g><path d="M55.606,3.944c0,-2.039 -1.655,-3.694 -3.694,-3.694l-7.388,0c-2.039,0 -3.695,1.655 -3.695,3.694l0,7.391c0,2.039 1.656,3.694 3.695,3.694l7.388,0c2.039,0 3.694,-1.655 3.694,-3.694l0,-7.391Z" style="fill:#00dcff;fill-opacity:0;stroke:#000;stroke-width:0.5px;"/><text x="45.49px" y="10.113px" style="font-family:'Montserrat-Regular', 'Montserrat';font-size:6.775px;">D</text></g><g><path d="M15.027,3.944c0,-2.039 -1.656,-3.694 -3.694,-3.694l-7.389,0c-2.039,0 -3.694,1.655 -3.694,3.694l0,7.391c0,2.039 1.655,3.694 3.694,3.694l7.389,0c2.038,0 3.694,-1.655 3.694,-3.694l0,-7.391Z" style="fill:#00dcff;fill-opacity:0;stroke:#000;stroke-width:0.5px;"/><text x="5.555px" y="10.138px" style="font-family:'Montserrat-Regular', 'Montserrat';font-size:6.775px;">S</text></g></g></svg>