<?xml version="1.0" encoding="UTF-8" standalone="no"?><!DOCTYPE svg PUBLIC "-//W3C//DTD SVG 1.1//EN" "http://www.w3.org/Graphics/SVG/1.1/DTD/svg11.dtd"><svg width="100%" height="100%" viewBox="0 0 39 16" version="1.1" xmlns="http://www.w3.org/2000/svg" xmlns:xlink="http://www.w3.org/1999/xlink" xml:space="preserve" xmlns:serif="http://www.serif.com/" style="fill-rule:evenodd;clip-rule:evenodd;stroke-linecap:round;stroke-linejoin:round;stroke-miterlimit:1.5;"><g><g><g><path d="M38.415,3.944c0,-2.039 -1.655,-3.694 -3.694,-3.694l-7.388,0c-2.039,0 -3.694,1.655 -3.694,3.694l0,7.391c0,2.039 1.655,3.694 3.694,3.694l7.388,0c2.039,0 3.694,-1.655 3.694,-3.694l0,-7.391Z" style="fill:#00dcff;fill-opacity:0;stroke:#000;stroke-width:0.5px;"/><path d="M33.008,7.646l-2.698,2.054l0,-4.121l2.698,2.067Z" style="fill-opacity:0.9;stroke:#000;stroke-width:0.5px;"/></g></g><g><g><path d="M0.25,3.944c0,-2.039 1.655,-3.694 3.694,-3.694l7.389,0c2.038,0 3.694,1.655 3.694,3.694l0,7.391c0,2.039 -1.656,3.694 -3.694,3.694l-7.389,0c-2.039,0 -3.694,-1.655 -3.694,-3.694l0,-7.391Z" style="fill:#00dcff;fill-opacity:0;stroke:#000;stroke-width:0.5px;"/><path d="M5.658,7.646l2.698,2.054l0,-4.121l-2.698,2.067Z" style="fill-opacity:0.9;stroke:#000;stroke-width:0.5px;"/></g></g></g></svg>