<?xml version="1.0" encoding="UTF-8" standalone="no"?><!DOCTYPE svg PUBLIC "-//W3C//DTD SVG 1.1//EN" "http://www.w3.org/Graphics/SVG/1.1/DTD/svg11.dtd"><svg width="100%" height="100%" viewBox="0 0 10 10" version="1.1" xmlns="http://www.w3.org/2000/svg" xmlns:xlink="http://www.w3.org/1999/xlink" xml:space="preserve" xmlns:serif="http://www.serif.com/" style="fill-rule:evenodd;clip-rule:evenodd;stroke-linejoin:round;stroke-miterlimit:2;"><g><path d="M8.829,7.361c0.406,0.406 0.406,1.066 0,1.469c-0.39,0.393 -1.077,0.393 -1.468,0l-0.565,-0.562l-0.693,0.693c-0.128,0.128 -0.296,0.198 -0.476,0.198c-0.272,0 -0.516,-0.162 -0.62,-0.415l-2.387,-5.724c-0.046,-0.113 -0.022,-0.248 0.067,-0.333c0.085,-0.089 0.22,-0.116 0.332,-0.067l5.725,2.387c0.207,0.086 0.36,0.269 0.403,0.489c0.043,0.223 -0.025,0.448 -0.186,0.607l-0.693,0.693l0.561,0.565Z" style="fill-rule:nonzero;"/><path d="M1.56,1.128c-0.119,-0.119 -0.312,-0.119 -0.432,0c-0.119,0.119 -0.119,0.313 0,0.432l0.779,0.779c0.06,0.06 0.138,0.089 0.216,0.089c0.078,0 0.156,-0.029 0.216,-0.089c0.119,-0.119 0.119,-0.312 0,-0.432l-0.779,-0.779Z" style="fill-rule:nonzero;"/><path d="M4.72,2.428c0.046,0 0.092,-0.01 0.136,-0.032l1.039,-0.519c0.151,-0.076 0.212,-0.259 0.136,-0.41c-0.075,-0.151 -0.258,-0.212 -0.409,-0.136l-1.039,0.519c-0.151,0.075 -0.212,0.259 -0.136,0.41c0.053,0.107 0.161,0.168 0.273,0.168Z" style="fill-rule:nonzero;"/><path d="M2.259,4.447c-0.15,-0.076 -0.334,-0.015 -0.409,0.136l-0.519,1.039c-0.076,0.151 -0.015,0.334 0.136,0.41c0.044,0.021 0.091,0.032 0.136,0.032c0.113,0 0.221,-0.062 0.274,-0.169l0.519,-1.039c0.075,-0.151 0.014,-0.334 -0.137,-0.409Z" style="fill-rule:nonzero;"/><path d="M3.621,1.903c0.02,0.004 0.041,0.006 0.06,0.006c0.143,0 0.27,-0.1 0.299,-0.245l0.26,-1.299c0.033,-0.165 -0.074,-0.326 -0.239,-0.359c-0.168,-0.034 -0.327,0.075 -0.36,0.24l-0.259,1.298c-0.033,0.165 0.074,0.326 0.239,0.359Z" style="fill-rule:nonzero;"/><path d="M1.903,3.621c-0.033,-0.165 -0.192,-0.273 -0.359,-0.239l-1.299,0.259c-0.165,0.034 -0.272,0.194 -0.239,0.36c0.029,0.145 0.157,0.245 0.299,0.245c0.02,0 0.04,-0.002 0.06,-0.006l1.299,-0.26c0.165,-0.033 0.272,-0.193 0.239,-0.359Z" style="fill-rule:nonzero;"/></g></svg>