<?xml version="1.0" encoding="UTF-8" standalone="no"?><!DOCTYPE svg PUBLIC "-//W3C//DTD SVG 1.1//EN" "http://www.w3.org/Graphics/SVG/1.1/DTD/svg11.dtd"><svg width="100%" height="100%" viewBox="0 0 57 16" version="1.1" xmlns="http://www.w3.org/2000/svg" xmlns:xlink="http://www.w3.org/1999/xlink" xml:space="preserve" xmlns:serif="http://www.serif.com/" style="fill-rule:evenodd;clip-rule:evenodd;stroke-linecap:round;stroke-linejoin:round;stroke-miterlimit:1.5;"><g><g><g><path d="M3.944,15.027c-2.039,0 -3.694,-1.656 -3.694,-3.694l0,-7.389c0,-2.039 1.655,-3.694 3.694,-3.694l7.391,0c2.039,0 3.694,1.655 3.694,3.694l0,7.389c0,2.038 -1.655,3.694 -3.694,3.694l-7.391,0Z" style="fill:#00dcff;fill-opacity:0;stroke:#000;stroke-width:0.5px;"/><path d="M7.646,9.619l2.054,-2.698l-4.121,0l2.067,2.698Z" style="fill-opacity:0.9;stroke:#000;stroke-width:0.5px;"/></g></g><g><g><path d="M52.193,0.25c2.039,0 3.695,1.655 3.695,3.694l0,7.389c0,2.038 -1.656,3.694 -3.695,3.694l-7.39,0c-2.039,0 -3.694,-1.656 -3.694,-3.694l0,-7.389c0,-2.039 1.655,-3.694 3.694,-3.694l7.39,0Z" style="fill:#00dcff;fill-opacity:0;stroke:#000;stroke-width:0.5px;"/><path d="M48.492,5.658l-2.054,2.698l4.12,0l-2.066,-2.698Z" style="fill-opacity:0.9;stroke:#000;stroke-width:0.5px;"/></g></g><g><path d="M19.936,8.38l0,1.378l-2.12,-2.12l2.12,-2.119l0,1.378l16.266,0l0,-1.378l2.119,2.119l-2.119,2.12l0,-1.378l-16.266,0Z" style="fill-opacity:0.84;"/></g></g></svg>