<?xml version="1.0" encoding="UTF-8" standalone="no"?><!DOCTYPE svg PUBLIC "-//W3C//DTD SVG 1.1//EN" "http://www.w3.org/Graphics/SVG/1.1/DTD/svg11.dtd"><svg width="100%" height="100%" viewBox="0 0 48 16" version="1.1" xmlns="http://www.w3.org/2000/svg" xmlns:xlink="http://www.w3.org/1999/xlink" xml:space="preserve" xmlns:serif="http://www.serif.com/" style="fill-rule:evenodd;clip-rule:evenodd;stroke-linecap:round;stroke-linejoin:round;stroke-miterlimit:1.5;"><g><g><path d="M15.027,3.944c0,-2.039 -1.656,-3.694 -3.694,-3.694l-7.389,0c-2.039,0 -3.694,1.655 -3.694,3.694l0,7.391c0,2.039 1.655,3.694 3.694,3.694l7.389,0c2.038,0 3.694,-1.655 3.694,-3.694l0,-7.391Z" style="fill:#00dcff;fill-opacity:0;stroke:#000;stroke-width:0.5px;"/><text x="3.234px" y="9.955px" style="font-family:'Montserrat-Regular', 'Montserrat';font-size:6.616px;">A<tspan x="6.718px 9.264px " y="9.955px 9.955px ">LT</tspan></text></g><g><path d="M47.182,3.944c0,-2.039 -1.656,-3.694 -3.695,-3.694l-7.388,0c-2.039,0 -3.694,1.655 -3.694,3.694l0,7.391c0,2.039 1.655,3.694 3.694,3.694l7.388,0c2.039,0 3.695,-1.655 3.695,-3.694l0,-7.391Z" style="fill:#00dcff;fill-opacity:0;stroke:#000;stroke-width:0.5px;"/><text x="37.127px" y="10.113px" style="font-family:'Montserrat-Regular', 'Montserrat';font-size:6.775px;">R</text></g><text x="19.841px" y="12.357px" style="font-family:'Montserrat-Regular', 'Montserrat';font-size:13.478px;">+</text></g></svg>