<svg height='100px' width='100px'  fill="#cac7c7" xmlns="http://www.w3.org/2000/svg" xmlns:xlink="http://www.w3.org/1999/xlink" version="1.1" x="0px" y="0px" viewBox="0 0 512 512" enable-background="new 0 0 512 512" xml:space="preserve"><g><path d="M256.002,0.009c-10.843,0-19.624,8.813-19.624,19.656l0,0V118.6v0.031c0,0,0,0.031,0,0.063v1.344c0.031,0,0.031,0,0.063,0   c0.719,10.187,9.188,18.218,19.562,18.218c10.375,0,18.858-8.031,19.563-18.218c0.031,0,0.047,0,0.063,0V19.666l0,0   C275.626,8.821,266.845,0.009,256.002,0.009z"></path><path d="M256.002,373.746c-10.374,0-18.843,8.063-19.562,18.25c-0.031,0-0.031,0-0.063,0v1.344c0,0.031,0,0.031,0,0.063v0.031   v98.902c0,0.031,0,0.031,0,0.031c0,10.844,8.781,19.623,19.624,19.623c10.844,0,19.625-8.779,19.625-19.623l0,0V391.996   c-0.017,0-0.031,0-0.063,0C274.86,381.809,266.376,373.746,256.002,373.746z"></path><path d="M120.852,61.164l49.436,85.653c0.016,0,0.031,0.031,0.031,0.031s0,0.031,0.03,0.031l0.656,1.187   c0.031,0,0.031-0.031,0.063-0.031c5.703,8.469,17.078,11.187,26.062,6c8.968-5.188,12.313-16.406,7.828-25.593   c0.016,0,0.047,0,0.047,0L154.82,41.506l0,0c-5.421-9.406-17.421-12.625-26.812-7.187c-9.375,5.406-12.593,17.406-7.188,26.812   C120.821,61.132,120.836,61.132,120.852,61.164z"></path><path d="M391.183,450.9l-50.187-86.938c-0.031,0-0.031,0-0.063,0.031c-5.703-8.469-17.077-11.188-26.063-6   c-8.969,5.189-12.296,16.375-7.828,25.564c-0.016,0-0.029,0-0.047,0.029l0.688,1.156c0,0.029,0,0.029,0,0.063   c0.029,0,0.029,0,0.029,0.029l49.469,85.654v0.029c5.422,9.373,17.421,12.594,26.812,7.188   C393.37,472.273,396.589,460.273,391.183,450.9L391.183,450.9z"></path><path d="M41.496,154.816c0.016,0.031,0.016,0.031,0.016,0.031l85.652,49.437c0.031,0.031,0.031,0.031,0.063,0.031   c0,0,0.016,0.031,0.03,0.031l1.172,0.688c0.017-0.031,0.017-0.063,0.017-0.063c9.187,4.469,20.404,1.156,25.577-7.843   c5.188-8.969,2.452-20.343-6.016-26.062c0.031,0,0.031-0.031,0.047-0.031l-86.934-50.187l0,0c-9.39-5.437-21.39-2.218-26.812,7.156   C28.887,137.411,32.106,149.411,41.496,154.816z"></path><path d="M470.522,357.186L470.522,357.186l-86.935-50.188c-0.016,0.031-0.029,0.031-0.029,0.064   c-9.188-4.471-20.392-1.156-25.577,7.811c-5.188,9-2.453,20.375,6.016,26.064c-0.031,0.029-0.031,0.029-0.047,0.063l1.172,0.656   c0.018,0.031,0.031,0.031,0.047,0.031c0.018,0,0.018,0.029,0.047,0.029l85.651,49.469h0.017c9.392,5.404,21.391,2.219,26.813-7.189   C483.116,374.621,479.897,362.621,470.522,357.186z"></path><path d="M118.634,275.625h0.031h1.359c0,0-0.017-0.031-0.017-0.063c10.188-0.689,18.25-9.189,18.25-19.564   c0-10.343-8.063-18.843-18.25-19.562c0,0,0.017-0.031,0.017-0.063H19.638l0,0c-10.843,0-19.624,8.812-19.624,19.624   c0,10.842,8.781,19.625,19.624,19.625c0.017,0,0.031,0,0.031,0h98.902C118.602,275.625,118.602,275.625,118.634,275.625z"></path><path d="M492.365,236.376L492.365,236.376H391.979c0,0.031,0.016,0.063,0.016,0.063c-10.187,0.719-18.231,9.218-18.231,19.562   c0,10.375,8.047,18.875,18.231,19.563c0,0.029-0.016,0.063-0.016,0.063h1.357h0.031c0.031,0,0.031,0,0.063,0h98.899h0.031   c10.844,0,19.624-8.781,19.624-19.625C511.989,245.188,503.209,236.376,492.365,236.376z"></path><path d="M146.851,341.686c0,0,0.017,0,0.031-0.031l1.172-0.654c-0.016-0.031-0.016-0.031-0.03-0.063   c8.468-5.689,11.187-17.064,6.015-26.064c-5.188-8.967-16.405-12.279-25.592-7.813c0-0.031,0-0.031-0.017-0.063l-86.934,50.186l0,0   c-9.39,5.438-12.609,17.438-7.188,26.813c5.422,9.406,17.422,12.594,26.812,7.189c0.016,0,0.016,0,0.016,0l85.668-49.469   C146.804,341.717,146.82,341.686,146.851,341.686z"></path><path d="M363.95,171.035c0.016,0,0.016,0.031,0.047,0.031c-8.469,5.718-11.188,17.093-6.016,26.062   c5.188,9,16.39,12.312,25.577,7.843c0,0,0.016,0.031,0.029,0.063l1.156-0.688c0.018,0,0.031-0.031,0.047-0.031   c0.018,0,0.018,0,0.047-0.031l85.651-49.437c0,0,0.016,0,0.031-0.031c9.375-5.406,12.594-17.406,7.188-26.812   c-5.438-9.375-17.437-12.593-26.827-7.156l0,0L363.95,171.035z"></path><path d="M197.13,357.996c-8.983-5.188-20.357-2.469-26.062,6c-0.031-0.031-0.031-0.031-0.063-0.031L120.82,450.9l0,0   c-5.406,9.375-2.188,21.373,7.188,26.813c9.391,5.406,21.405,2.188,26.812-7.188v-0.031l49.466-85.652   c0-0.029,0.016-0.029,0.031-0.029c0-0.031,0-0.031,0.016-0.064l0.672-1.156c0-0.029-0.031-0.029-0.047-0.029   C209.442,374.371,206.113,363.184,197.13,357.996z"></path><path d="M314.874,154.036c8.984,5.187,20.358,2.469,26.063-6c0.031,0,0.031,0.031,0.063,0.031l0.672-1.187l0.018-0.031   c0.016,0,0.03-0.031,0.03-0.031l49.449-85.685c0.018,0,0.018,0,0.018,0c5.406-9.406,2.188-21.405-7.188-26.812   c-9.391-5.438-21.39-2.219-26.812,7.187l0,0l-50.188,86.935c0,0,0.031,0,0.047,0.031   C302.578,137.629,305.905,148.848,314.874,154.036z"></path></g></svg>