<svg height='100px' width='100px'  fill="#000000" xmlns="http://www.w3.org/2000/svg" xmlns:xlink="http://www.w3.org/1999/xlink" version="1.1" x="0px" y="0px" viewBox="0 0 36 36" style="enable-background:new 0 0 36 36;" xml:space="preserve"><g><path d="M18,34c0.55,0,1-0.45,1-1V22h8c0.55,0,1-0.45,1-1c0-2.42-1.72-4.43-4-4.9V4h1c0.55,0,1-0.45,1-1s-0.45-1-1-1h-2H13h-2   c-0.55,0-1,0.45-1,1s0.45,1,1,1h1v12.1c-2.28,0.46-4,2.48-4,4.9c0,0.55,0.45,1,1,1h8v11C17,33.55,17.45,34,18,34z M10.17,20   c0.41-1.16,1.52-2,2.83-2c0.55,0,1-0.45,1-1V4h8v13c0,0.55,0.45,1,1,1c1.3,0,2.42,0.84,2.83,2H10.17z"></path></g></svg>