<svg xmlns="http://www.w3.org/2000/svg" xmlns:xlink="http://www.w3.org/1999/xlink" width="100" height="100" viewBox="0 0 100 100"><g transform="translate(50 50) scale(-0.69 0.69) rotate(0) translate(-50 -50)" style="fill:#eeeeee"><svg fill="#eeeeee" xmlns="http://www.w3.org/2000/svg" xmlns:xlink="http://www.w3.org/1999/xlink" version="1.1" x="0px" y="0px" viewBox="0 0 100 100" enable-background="new 0 0 100 100" xml:space="preserve"><path stroke="black" stroke-width="4" d="M87.2,47.1c1.7-0.3,3.4-0.1,4.9,0.3c1.5,0.4,2.9-0.6,2.9-2.1l0-16.4c0-3.3-2.6-5.9-5.9-5.9l-16.4,0  c-1.5,0-2.5-1.4-2.1-2.9c0.4-1.5,0.5-3.2,0.3-4.9c-0.8-5.2-4.6-9.2-9.8-10C53.5,3.9,47,9.7,47,17c0,1.1,0.1,2.2,0.4,3.2  c0.4,1.4-0.8,2.8-2.2,2.8l-16.3,0c-3.3,0-5.9,2.6-5.9,5.9l0,16.4c0,1.5-1.4,2.5-2.9,2.1c-1.5-0.4-3.2-0.5-4.9-0.3  c-5.2,0.8-9.2,4.6-10,9.8C3.9,64.5,9.7,71,17,71c1.1,0,2.2-0.1,3.2-0.4c1.4-0.4,2.8,0.8,2.8,2.2l0,16.3c0,3.3,2.6,5.9,5.9,5.9  l16.4,0c1.5,0,2.5-1.4,2.1-2.9c-0.4-1.5-0.5-3.2-0.3-4.9c0.8-5.2,4.6-9.2,9.8-10C64.5,75.9,71,81.7,71,89c0,1.1-0.1,2.2-0.4,3.2  c-0.4,1.4,0.8,2.8,2.2,2.8l16.3,0c3.3,0,5.9-2.6,5.9-5.9l0-16.3c0-1.5-1.4-2.6-2.8-2.2c-1,0.3-2.1,0.4-3.2,0.4  c-7.3,0-13.1-6.5-11.8-14.1C78,51.8,82,47.9,87.2,47.1z"></path></svg></g></svg>